# xmcd
#
# Track frame offsets: 
#        150
#        12443
#        25099
#        34999
#        46783
#        58187
#        68320
#        80200
#        92286
#        103033
#        112389
#        121107
#        132009
#        144139
#        154172
#        164609
#
# Disc length: 2408 seconds
#
# Revision: 1
# Processed by: cddbd v1.5.2PL0 Copyright (c) Steve Scherf et al.
# Submitted via: ExactAudioCopyFreeDBPlugin 1.0
#
DISCID=cd096610
DTITLE=Johnny Cash - The Best Of - CD 1
DYEAR=1900
DGENRE=Country
TTITLE0=I Walk The Line
TTITLE1=Folsom Prison Bues
TTITLE2=Ballad Of A Teenage Queen
TTITLE3=So Doggone Lonesome
TTITLE4=Big River
TTITLE5=The Ways Of A Woman In Love
TTITLE6=Home Of The Bues
TTITLE7=You're The Nearest Thing To Heaven
TTITLE8=Train Of Love
TTITLE9=Luther Played The Boogie
TTITLE10=Katy Too
TTITLE11=Cry, Cry, Cry
TTITLE12=Give My Love To Rose
TTITLE13=Get Rhythm
TTITLE14=There You Go
TTITLE15=City Of New Orleans (live)
EXTD=
EXTT0=
EXTT1=
EXTT2=
EXTT3=
EXTT4=
EXTT5=
EXTT6=
EXTT7=
EXTT8=
EXTT9=
EXTT10=
EXTT11=
EXTT12=
EXTT13=
EXTT14=
EXTT15=
PLAYORDER=
